<svg width="170" height="45" viewBox="0 0 170 45" fill="none" xmlns="http://www.w3.org/2000/svg">
<path d="M65.1591 28.3875V30.675C65.1591 31.5375 65.1591 32.25 65.0829 32.9625C65.3495 32.4 65.6923 31.8 66.1112 31.1625L67.9011 28.3875H68.6246V33.7875H67.9391V31.5C67.9391 30.6375 67.9391 30 68.0153 29.2875H67.9772C67.7106 29.8875 67.3298 30.525 66.949 31.125L65.2353 33.825H64.4736V28.3875H65.1591Z" fill="black"/>
<path d="M70.5667 28.3875V30.6375H73.2325V28.3875H73.956V33.7875H73.2325V31.2375H70.5667V33.7875H69.8431V28.3875H70.5667Z" fill="black"/>
<path d="M76.203 28.9875H74.5273V28.3875H78.6022V28.9875H76.9265V33.825H76.203V28.9875Z" fill="black"/>
<path d="M82.0676 31.2375H79.935V33.1875H82.3342V33.7875H79.2114V28.3875H82.1819V28.9875H79.935V30.7125H82.0676V31.2375Z" fill="black"/>
<path d="M83.2483 28.425C83.591 28.35 84.048 28.3125 84.6193 28.3125C85.3047 28.3125 85.8379 28.4625 86.1426 28.7625C86.4472 29.025 86.6376 29.4 86.6376 29.8875C86.6376 30.375 86.4853 30.75 86.2187 31.05C85.8379 31.425 85.2286 31.65 84.5431 31.65C84.3146 31.65 84.1242 31.65 83.9719 31.6125V33.7875H83.2483V28.425ZM83.9338 31.05C84.0861 31.0875 84.2765 31.125 84.505 31.125C85.3428 31.125 85.876 30.7125 85.876 29.9625C85.876 29.25 85.3809 28.9125 84.5812 28.9125C84.2765 28.9125 84.048 28.95 83.8957 28.9875V31.05H83.9338Z" fill="black"/>
<path d="M88.2751 28.3875V30.6375H90.9409V28.3875H91.6644V33.7875H90.9409V31.2375H88.2751V33.7875H87.5896V28.3875H88.2751Z" fill="black"/>
<path d="M95.7392 31.2375H93.6066V33.1875H96.0058V33.7875H92.9211V28.3875H95.8916V28.9875H93.6447V30.7125H95.7773V31.2375H95.7392Z" fill="black"/>
<path d="M97.9862 28.9875H96.3105V28.3875H100.385V28.9875H98.7097V33.825H97.9862V28.9875Z" fill="black"/>
<path d="M104.384 30.75V31.275H102.366V30.75H104.384Z" fill="black"/>
<path d="M107.849 32.1L107.278 33.7875H106.555L108.421 28.3875H109.297L111.163 33.7875H110.401L109.83 32.1H107.849ZM109.677 31.5375L109.144 29.9625C109.03 29.625 108.954 29.2875 108.84 28.9875C108.763 29.325 108.649 29.625 108.573 29.9625L108.04 31.5375H109.677Z" fill="black"/>
<path d="M115.923 28.3875V33.7875H115.199V28.95H112.648V33.7875H111.962V28.3875H115.923Z" fill="black"/>
<path d="M118.208 28.9875H116.532V28.3875H120.607V28.9875H118.931V33.825H118.208V28.9875Z" fill="black"/>
<path d="M124.073 31.2375H121.94V33.1875H124.339V33.7875H121.255V28.3875H124.225V28.9875H121.978V30.7125H124.111V31.2375H124.073Z" fill="black"/>
<path d="M125.939 28.3875V30.7875H126.167L128.033 28.3875H128.871L126.776 30.8625C127.69 30.975 128.033 31.5375 128.3 32.25C128.49 32.8125 128.643 33.3 128.909 33.7875H128.147C127.957 33.4125 127.805 32.925 127.652 32.5125C127.386 31.8 127.043 31.3125 126.129 31.3125H125.901V33.7875H125.215V28.3875H125.939Z" fill="black"/>
<path d="M130.585 32.1L130.013 33.7875H129.29L131.156 28.3875H132.032L133.898 33.7875H133.136L132.565 32.1H130.585ZM132.413 31.5375L131.88 29.9625C131.765 29.625 131.689 29.2875 131.575 28.9875C131.499 29.325 131.384 29.625 131.308 29.9625L130.775 31.5375H132.413Z" fill="black"/>
<path d="M69.234 15.7875L69.9576 18.45C69.9957 18.525 69.9957 18.675 69.8052 18.675H69.0055C68.9293 18.675 68.8151 18.675 68.777 18.525L68.0915 15.975C67.863 15.15 67.406 14.925 66.6063 14.925H65.083V18.4875C65.083 18.675 65.0069 18.675 64.8545 18.675H64.0929C63.9405 18.675 63.8644 18.675 63.8644 18.4875V10.8375C63.8644 10.65 63.9405 10.65 64.0929 10.65H64.8545C65.0069 10.65 65.083 10.65 65.0449 10.8375V13.875H66.4921C66.9871 13.875 67.5965 13.7625 67.9011 12.75L68.3962 10.8C68.4343 10.65 68.5485 10.65 68.6247 10.65H69.3483C69.5387 10.65 69.5387 10.8 69.5006 10.875L69.0055 12.9375C68.8532 13.575 68.5104 14.0625 68.0534 14.3625V14.4375C68.8532 14.6625 69.0436 15.1125 69.234 15.7875Z" fill="black"/>
<path d="M76.0507 18.4875L75.5175 16.875H72.3567L71.8235 18.4875C71.7854 18.6 71.7093 18.675 71.5569 18.675H70.643C70.4526 18.675 70.4145 18.5625 70.4906 18.45L73.0802 11.1375C73.2326 10.725 73.3468 10.65 73.7276 10.65H74.1085C74.5655 10.65 74.6797 10.7625 74.7939 11.1375L77.3836 18.45C77.4216 18.5625 77.3836 18.675 77.2312 18.675H76.3553C76.203 18.675 76.1268 18.675 76.0507 18.4875ZM73.9181 11.9625H73.88L73.3849 13.5375L72.6613 15.825H75.1367L74.4131 13.6125L73.9181 11.9625Z" fill="black"/>
<path d="M80.3158 10.65H83.8956C84.3525 10.65 84.6572 10.875 84.6572 11.4375V18.525C84.6572 18.7125 84.581 18.7125 84.4668 18.7125H83.6671C83.5147 18.7125 83.4386 18.7125 83.4386 18.525V11.7H80.6966L80.6205 12.825C80.392 16.275 80.2777 18.3 78.1451 18.8625C78.0309 18.9 77.9166 18.9 77.8404 18.675L77.6881 18.1125C77.612 17.8875 77.7643 17.85 77.8404 17.8125C79.1733 17.25 79.2114 16.1625 79.4399 12.8625L79.5542 11.4C79.5922 10.875 79.8969 10.65 80.3158 10.65Z" fill="black"/>
<path d="M87.4753 18.9C87.2849 18.9 86.9421 18.8625 86.5613 18.7875C86.409 18.75 86.3709 18.7125 86.409 18.6L86.5232 17.9625C86.5613 17.8125 86.5994 17.85 86.7517 17.85C87.0564 17.8875 87.2849 17.925 87.5134 17.8875C87.9704 17.85 88.2369 17.7375 88.4274 17.2125L88.732 16.4625H88.5416C88.275 16.4625 88.0846 16.4625 87.9323 16.0125L85.7235 10.8C85.6854 10.725 85.7235 10.65 85.8378 10.65H86.7517C86.9421 10.65 86.9802 10.725 86.9802 10.8375L88.1608 13.7625L88.9224 15.75H88.9986L89.7602 13.65L90.8266 10.8375C90.8646 10.725 90.9408 10.6875 91.0551 10.6875H91.9309C92.0452 10.6875 92.0833 10.7625 92.0452 10.8375L89.4937 17.5125C89.1128 18.6375 88.5035 18.9 87.4753 18.9Z" fill="black"/>
<path d="M94.0255 18.675H93.3781C93.1877 18.675 93.1116 18.6375 93.1116 18.45V12.675C93.1116 11.625 93.6066 10.65 95.1299 10.65H98.2527C98.4812 10.65 98.4812 10.725 98.4812 10.9125V11.4375C98.4812 11.625 98.4431 11.7 98.2527 11.7H95.1299C94.5206 11.7 94.2921 11.925 94.2921 12.4875V18.45C94.2921 18.6375 94.254 18.675 94.0255 18.675Z" fill="black"/>
<path d="M103.356 18.4875L102.823 16.875H99.6617L99.1286 18.4875C99.0905 18.6 99.0143 18.675 98.862 18.675H97.948C97.7576 18.675 97.7195 18.5625 97.7957 18.45L100.385 11.1375C100.538 10.725 100.652 10.65 101.033 10.65H101.414C101.871 10.65 101.985 10.7625 102.099 11.1375L104.689 18.45C104.727 18.5625 104.689 18.675 104.536 18.675H103.66C103.508 18.675 103.394 18.675 103.356 18.4875ZM101.223 11.9625H101.147L100.652 13.5375L99.9283 15.825H102.404L101.68 13.6125L101.223 11.9625Z" fill="black"/>
<path d="M110.134 18.675H109.335C109.182 18.675 109.106 18.675 109.106 18.4875V18C106.783 17.775 105.526 16.5375 105.526 14.55C105.526 12.5625 107.012 11.2875 109.106 11.1V10.8375C109.106 10.65 109.182 10.65 109.335 10.65H110.134C110.287 10.65 110.363 10.65 110.363 10.8375V11.1C112.724 11.2875 114.019 12.5625 114.019 14.55C114.019 16.5375 112.495 17.8125 110.363 18V18.4875C110.325 18.675 110.287 18.675 110.134 18.675ZM106.669 14.55C106.669 15.8625 107.43 16.875 109.106 17.025V12.075C107.583 12.2625 106.669 13.2375 106.669 14.55ZM112.838 14.55C112.838 13.2375 112.077 12.1875 110.325 12.0375V17.025C112.038 16.9125 112.838 15.8625 112.838 14.55Z" fill="black"/>
<path d="M120.074 18.4875L119.541 16.875H116.38L115.847 18.4875C115.809 18.6 115.732 18.675 115.58 18.675H114.666C114.476 18.675 114.438 18.5625 114.514 18.45L117.103 11.1375C117.256 10.725 117.37 10.65 117.751 10.65H118.132C118.589 10.65 118.703 10.7625 118.817 11.1375L121.407 18.45C121.445 18.5625 121.407 18.675 121.254 18.675H120.379C120.226 18.675 120.15 18.675 120.074 18.4875ZM117.941 11.9625H117.865L117.37 13.5375L116.646 15.825H119.122L118.398 13.6125L117.941 11.9625Z" fill="black"/>
<path d="M123.121 10.6125H125.824C127.31 10.6125 128.376 11.5875 128.376 13.0125C128.376 13.8375 127.919 15.4875 125.786 15.4875H123.692V18.4125C123.692 18.6375 123.616 18.6375 123.425 18.6375H122.778C122.587 18.6375 122.511 18.6 122.511 18.4125V11.25C122.473 10.8 122.664 10.6125 123.121 10.6125ZM125.52 11.7H123.654V14.475H125.558C126.662 14.475 127.119 13.9125 127.119 13.125C127.157 12.525 126.815 11.7 125.52 11.7Z" fill="black"/>
<path d="M136.183 12.75L135.535 14.475L134.431 17.25C134.279 17.6625 134.164 17.7375 133.784 17.7375H133.288C132.87 17.7375 132.793 17.625 132.641 17.25L131.499 14.55L130.851 12.9375H130.775V18.4875C130.775 18.7125 130.699 18.7125 130.508 18.7125H129.899C129.709 18.7125 129.633 18.675 129.633 18.4875V11.2875C129.633 10.875 129.747 10.65 130.28 10.65H130.623C130.965 10.65 131.156 10.725 131.308 11.1375L132.793 14.8875L133.479 16.6125H133.517L134.164 14.8875L135.688 11.1C135.878 10.6875 136.03 10.6125 136.373 10.6125H136.716C137.211 10.6125 137.363 10.8375 137.363 11.25V18.4125C137.363 18.6375 137.287 18.6375 137.097 18.6375H136.487C136.297 18.6375 136.221 18.6 136.221 18.4125V12.75H136.183Z" fill="black"/>
<path d="M144.066 18.4875L143.533 16.875H140.372L139.839 18.4875C139.801 18.6 139.724 18.675 139.572 18.675H138.62C138.43 18.675 138.392 18.5625 138.468 18.45L141.057 11.1375C141.21 10.725 141.324 10.65 141.705 10.65H142.086C142.543 10.65 142.657 10.7625 142.771 11.1375L145.361 18.45C145.399 18.5625 145.361 18.675 145.208 18.675H144.332C144.18 18.675 144.104 18.675 144.066 18.4875ZM141.933 11.9625H141.857L141.362 13.5375L140.638 15.825H143.114L142.39 13.6125L141.933 11.9625Z" fill="black"/>
<path d="M153.548 18.1125L153.396 20.4C153.396 20.5875 153.32 20.5875 153.244 20.5875H152.596C152.52 20.5875 152.444 20.5125 152.444 20.4L152.368 18.675H147.227C146.808 18.675 146.465 18.45 146.465 17.8875V10.8375C146.465 10.65 146.541 10.65 146.694 10.65H147.493C147.646 10.65 147.722 10.65 147.722 10.8375V17.625H151.568V10.8375C151.568 10.65 151.644 10.65 151.797 10.65H152.558C152.711 10.65 152.749 10.65 152.749 10.8375V17.625L153.13 17.6625C153.587 17.6625 153.548 17.925 153.548 18.1125Z" fill="black"/>
<path d="M158.918 14.025L156.443 18.1875C156.214 18.525 156.1 18.675 155.757 18.675H155.376C154.881 18.675 154.729 18.45 154.729 18.0375V10.8375C154.729 10.65 154.805 10.65 154.957 10.65H155.719C155.871 10.65 155.948 10.65 155.948 10.8375V17.025H155.986L156.938 15.4125L159.489 11.1375C159.718 10.8 159.832 10.65 160.175 10.65H160.555C161.051 10.65 161.203 10.8375 161.203 11.2875V18.525C161.203 18.7125 161.127 18.7125 160.974 18.7125H160.213C160.06 18.7125 160.022 18.7125 160.022 18.525V12.2625H159.946L158.918 14.025Z" fill="black"/>
<path d="M165.887 15.2625C165.125 15.2625 164.554 15.4875 164.326 16.35L163.716 18.525C163.678 18.675 163.564 18.675 163.488 18.675H162.612C162.422 18.675 162.422 18.525 162.46 18.45L163.107 16.1625C163.259 15.6 163.526 15.225 164.173 14.9625C163.336 14.625 162.841 13.9125 162.841 12.9375C162.841 11.5875 163.869 10.6125 165.354 10.6125H168.02C168.477 10.6125 168.667 10.8 168.667 11.25V18.4875C168.667 18.675 168.591 18.675 168.439 18.675H167.639C167.487 18.675 167.449 18.675 167.449 18.4875V15.2625H165.887ZM165.544 14.25H167.372V11.7H165.43C164.212 11.7 163.983 12.4875 163.983 12.975C164.021 13.65 164.44 14.25 165.544 14.25Z" fill="black"/>
<path d="M169.505 23.925H64.3593C64.0928 23.925 63.8643 23.7 63.8643 23.4375C63.8643 23.175 64.0928 22.95 64.3593 22.95H169.505C169.772 22.95 170 23.175 170 23.4375C170 23.7 169.772 23.925 169.505 23.925Z" fill="#3AC582"/>
<path d="M22.6972 0C18.2035 0 14.5095 3.6 14.5095 8.0625V17.1375H23.7255C28.2192 17.1375 31.9132 13.5375 31.9132 9.075V0H22.6972ZM23.7255 14.2875H17.3657V8.0625C17.3657 5.175 19.7649 2.8125 22.6972 2.8125H29.0189V9.0375C29.057 11.9625 26.6578 14.2875 23.7255 14.2875Z" fill="#3AC582"/>
<path d="M8.18772 14.2875C3.65591 14.2875 0 17.925 0 22.35V31.425H9.21595C13.7097 31.425 17.4037 27.825 17.4037 23.3625V14.2875H8.18772ZM14.5094 17.1V23.3625C14.5094 26.25 12.1102 28.6125 9.17787 28.6125H2.85618V22.35C2.85618 19.4625 5.25538 17.1 8.18772 17.1H14.5094Z" fill="#148F19"/>
<path d="M37.2065 13.5375C32.7128 13.5375 29.0188 17.1375 29.0188 21.6V30.675H38.2347C42.7285 30.675 46.4225 27.075 46.4225 22.6125V13.5375H37.2065ZM38.2347 27.8625H31.9131V21.6C31.9131 18.7125 34.3123 16.35 37.2446 16.35H43.5663V22.575C43.5663 25.5 41.1671 27.8625 38.2347 27.8625Z" fill="#3AC582"/>
<path d="M22.6972 27.8625C18.2035 27.8625 14.5095 31.4625 14.5095 35.925V45H23.7255C28.2192 45 31.9132 41.4 31.9132 36.9375V27.8625H22.6972ZM29.057 30.675V36.9375C29.057 39.825 26.6578 42.1875 23.7255 42.1875H17.3657V35.925C17.3657 33.0375 19.7649 30.675 22.6972 30.675H29.057Z" fill="#148F19"/>
</svg>
