<svg width="17" height="17" viewBox="0 0 17 17" fill="none" xmlns="http://www.w3.org/2000/svg">
<path d="M7.21487 9.65683C7.21487 9.65683 9.2232 11.6399 10.0409 11.798L11.7193 10.1167C11.7193 10.1167 12.3791 9.48439 13.0821 10.1311L15.822 12.8758C15.822 12.8758 16.2667 13.6949 15.7503 14.1979L14.4162 15.5343C14.4162 15.5343 12.0636 17.0432 8.29076 14.629C8.29076 14.629 6.51195 13.6949 4.86225 12.0136" stroke="#444444" stroke-miterlimit="10"/>
<path d="M7.35833 9.80052C7.35833 9.80052 5.37869 7.78867 5.20655 6.96956L6.88494 5.28822C6.88494 5.28822 7.51612 4.62719 6.87059 3.92304L4.11631 1.17831C4.11631 1.17831 3.29863 0.732824 2.79655 1.25016L1.46244 2.5866C1.46244 2.5866 -0.0438069 4.94334 2.38054 8.72274C2.38054 8.72274 3.31297 10.5047 5.00571 12.1573" stroke="#444444" stroke-miterlimit="10"/>
</svg>
